<svg width="32" height="32" viewBox="0 0 32 32" fill="none" xmlns="http://www.w3.org/2000/svg">
<g clip-path="url(#clip0_1_623)">
<path d="M15.9865 2.66675C8.6265 2.66675 2.6665 8.64008 2.6665 16.0001C2.6665 23.3601 8.6265 29.3334 15.9865 29.3334C23.3598 29.3334 29.3332 23.3601 29.3332 16.0001C29.3332 8.64008 23.3598 2.66675 15.9865 2.66675ZM15.9998 26.6667C10.1065 26.6667 5.33317 21.8934 5.33317 16.0001C5.33317 10.1067 10.1065 5.33341 15.9998 5.33341C21.8932 5.33341 26.6665 10.1067 26.6665 16.0001C26.6665 21.8934 21.8932 26.6667 15.9998 26.6667ZM20.6665 14.6667C21.7732 14.6667 22.6665 13.7734 22.6665 12.6667C22.6665 11.5601 21.7732 10.6667 20.6665 10.6667C19.5598 10.6667 18.6665 11.5601 18.6665 12.6667C18.6665 13.7734 19.5598 14.6667 20.6665 14.6667ZM11.3332 14.6667C12.4398 14.6667 13.3332 13.7734 13.3332 12.6667C13.3332 11.5601 12.4398 10.6667 11.3332 10.6667C10.2265 10.6667 9.33317 11.5601 9.33317 12.6667C9.33317 13.7734 10.2265 14.6667 11.3332 14.6667ZM15.9998 23.3334C19.1065 23.3334 21.7465 21.3867 22.8132 18.6667H9.1865C10.2532 21.3867 12.8932 23.3334 15.9998 23.3334Z" fill="#46F4DB"/>
</g>
<defs>
<clipPath id="clip0_1_623">
<rect width="32" height="32" fill="white"/>
</clipPath>
</defs>
</svg>
